<svg xmlns="http://www.w3.org/2000/svg" width="800" height="600" viewBox="0 0 800 600" fill="none">
  <defs>
    <linearGradient id="ag" x1="0%" y1="0%" x2="100%" y2="100%">
      <stop offset="0%" stop-color="#140a28"/>
      <stop offset="100%" stop-color="#1e1040"/>
    </linearGradient>
  </defs>
  <rect width="800" height="600" fill="url(#ag)"/>
  <g opacity="0.08" stroke="#e8c658" stroke-width="0.5">
    <path d="M0 150 H800 M0 300 H800 M0 450 H800"/>
    <path d="M200 0 V600 M400 0 V600 M600 0 V600"/>
  </g>
  <rect x="48" y="52" width="200" height="34" rx="8" fill="rgba(212,175,55,0.15)" stroke="rgba(212,175,55,0.4)"/>
  <text x="64" y="75" fill="#e8c658" font-family="system-ui,sans-serif" font-size="13" font-weight="700" letter-spacing="0.22em">AURA AI</text>
  <rect x="72" y="130" width="420" height="72" rx="14" fill="rgba(255,255,255,0.06)" stroke="rgba(255,255,255,0.1)"/>
  <rect x="92" y="150" width="280" height="10" rx="2" fill="rgba(255,255,255,0.2)"/>
  <rect x="92" y="172" width="200" height="8" rx="2" fill="rgba(255,255,255,0.1)"/>
  <rect x="380" y="230" width="340" height="88" rx="14" fill="rgba(212,175,55,0.08)" stroke="rgba(212,175,55,0.25)"/>
  <rect x="400" y="252" width="240" height="10" rx="2" fill="rgba(232,198,88,0.35)"/>
  <rect x="400" y="274" width="180" height="8" rx="2" fill="rgba(232,198,88,0.2)"/>
  <rect x="72" y="340" width="380" height="64" rx="12" fill="rgba(255,255,255,0.04)" stroke="rgba(255,255,255,0.07)"/>
  <path d="M620 400 L640 360 L660 400 L650 390 Z" fill="rgba(232,198,88,0.5)"/>
  <circle cx="680" cy="380" r="3" fill="rgba(232,198,88,0.7)"/>
  <circle cx="695" cy="365" r="2" fill="rgba(232,198,88,0.5)"/>
</svg>
