<svg xmlns="http://www.w3.org/2000/svg" width="800" height="600" viewBox="0 0 800 600" fill="none">
  <defs>
    <linearGradient id="cg" x1="0%" y1="0%" x2="100%" y2="100%">
      <stop offset="0%" stop-color="#0e0518"/>
      <stop offset="100%" stop-color="#1a0a2e"/>
    </linearGradient>
  </defs>
  <rect width="800" height="600" fill="url(#cg)"/>
  <g opacity="0.1" stroke="#B794F4" stroke-width="0.5">
    <path d="M0 120 H800 M0 240 H800 M0 360 H800 M0 480 H800"/>
  </g>
  <rect x="48" y="48" width="200" height="504" rx="12" fill="rgba(0,0,0,0.25)" stroke="rgba(183,148,244,0.2)"/>
  <g transform="translate(64,72)">
    <rect y="0" width="160" height="14" rx="3" fill="rgba(255,255,255,0.12)"/>
    <rect y="32" width="120" height="10" rx="2" fill="rgba(255,255,255,0.08)"/>
    <rect y="58" width="140" height="10" rx="2" fill="rgba(255,255,255,0.06)"/>
    <rect y="84" width="100" height="10" rx="2" fill="rgba(255,255,255,0.08)"/>
    <rect y="110" width="150" height="10" rx="2" fill="rgba(255,255,255,0.05)"/>
  </g>
  <rect x="268" y="48" width="484" height="504" rx="12" fill="rgba(255,255,255,0.03)" stroke="rgba(255,255,255,0.08)"/>
  <g transform="translate(292,88)">
    <circle cx="16" cy="16" r="14" fill="rgba(99,179,237,0.35)"/>
    <rect x="40" y="6" width="200" height="10" rx="2" fill="rgba(255,255,255,0.15)"/>
    <rect x="40" y="22" width="320" height="8" rx="2" fill="rgba(255,255,255,0.08)"/>
    <rect x="40" y="36" width="260" height="8" rx="2" fill="rgba(255,255,255,0.06)"/>
  </g>
  <g transform="translate(292,168)">
    <circle cx="16" cy="16" r="14" fill="rgba(15,217,138,0.3)"/>
    <rect x="40" y="6" width="180" height="10" rx="2" fill="rgba(255,255,255,0.12)"/>
    <rect x="40" y="22" width="300" height="8" rx="2" fill="rgba(255,255,255,0.07)"/>
  </g>
  <g transform="translate(292,238)">
    <circle cx="16" cy="16" r="14" fill="rgba(234,169,96,0.35)"/>
    <rect x="40" y="6" width="220" height="10" rx="2" fill="rgba(255,255,255,0.14)"/>
    <rect x="40" y="22" width="280" height="8" rx="2" fill="rgba(255,255,255,0.06)"/>
  </g>
  <rect x="292" y="320" width="360" height="120" rx="12" fill="rgba(183,148,244,0.06)" stroke="rgba(183,148,244,0.2)"/>
</svg>
