<svg xmlns="http://www.w3.org/2000/svg" width="800" height="600" viewBox="0 0 800 600" fill="none">
  <defs>
    <linearGradient id="c_bg" x1="0%" y1="0%" x2="100%" y2="100%">
      <stop offset="0%" stop-color="#080514"/>
      <stop offset="100%" stop-color="#140a22"/>
    </linearGradient>
    <linearGradient id="c_ch" x1="0%" y1="0%" x2="100%" y2="0%">
      <stop offset="0%" stop-color="#B794F4"/>
      <stop offset="100%" stop-color="#805AD5"/>
    </linearGradient>
  </defs>
  <rect width="800" height="600" fill="url(#c_bg)"/>
  <rect x="0" y="0" width="800" height="600" fill="#805AD5" opacity="0.03"/>

  <!-- Server / workspace rail -->
  <rect x="36" y="40" width="72" height="520" rx="16" fill="rgba(0,0,0,0.45)" stroke="rgba(255,255,255,0.06)"/>
  <circle cx="72" cy="80" r="22" fill="url(#c_ch)" opacity="0.9"/>
  <text x="72" y="86" text-anchor="middle" fill="#fff" font-family="system-ui,sans-serif" font-size="12" font-weight="700">A</text>
  <rect x="52" y="118" width="40" height="40" rx="12" fill="rgba(183,148,244,0.2)" stroke="rgba(183,148,244,0.45)"/>
  <rect x="52" y="170" width="40" height="40" rx="12" fill="rgba(255,255,255,0.05)"/>
  <rect x="52" y="222" width="40" height="40" rx="12" fill="rgba(255,255,255,0.05)"/>
  <rect x="52" y="274" width="40" height="40" rx="12" fill="rgba(255,255,255,0.05)"/>

  <!-- Channel list -->
  <rect x="124" y="40" width="220" height="520" rx="18" fill="rgba(255,255,255,0.04)" stroke="rgba(255,255,255,0.07)"/>
  <text x="148" y="78" fill="rgba(255,255,255,0.4)" font-family="system-ui,sans-serif" font-size="10" font-weight="600" letter-spacing="0.14em">CHANNELS</text>
  <rect x="140" y="96" width="188" height="40" rx="10" fill="rgba(183,148,244,0.15)" stroke="rgba(183,148,244,0.35)"/>
  <text x="156" y="122" fill="#fff" font-family="system-ui,sans-serif" font-size="13" font-weight="600"># trade-ideas</text>
  <rect x="140" y="148" width="188" height="36" rx="10" fill="rgba(255,255,255,0.03)"/>
  <text x="156" y="172" fill="rgba(255,255,255,0.55)" font-family="system-ui,sans-serif" font-size="12"># macro</text>
  <rect x="140" y="196" width="188" height="36" rx="10" fill="rgba(255,255,255,0.03)"/>
  <text x="156" y="220" fill="rgba(255,255,255,0.55)" font-family="system-ui,sans-serif" font-size="12"># journal</text>
  <rect x="140" y="260" width="188" height="88" rx="12" fill="rgba(15,217,138,0.08)" stroke="rgba(15,217,138,0.22)"/>
  <text x="156" y="288" fill="rgba(209,250,229,0.9)" font-family="system-ui,sans-serif" font-size="11" font-weight="600">Voice · Live Q&amp;A</text>
  <text x="156" y="310" fill="rgba(255,255,255,0.4)" font-family="system-ui,sans-serif" font-size="10">Tonight 8 PM UTC</text>
  <rect x="156" y="324" width="100" height="8" rx="2" fill="rgba(15,217,138,0.35)"/>

  <!-- Main feed -->
  <rect x="364" y="40" width="400" height="520" rx="20" fill="rgba(0,0,0,0.35)" stroke="rgba(255,255,255,0.06)"/>
  <rect x="388" y="64" width="200" height="10" rx="3" fill="rgba(255,255,255,0.15)"/>
  <rect x="388" y="82" width="120" height="7" rx="2" fill="rgba(255,255,255,0.08)"/>

  <!-- Post 1 -->
  <g transform="translate(388, 116)">
    <circle cx="20" cy="20" r="18" fill="rgba(99,179,237,0.45)"/>
    <text x="20" y="26" text-anchor="middle" fill="#fff" font-family="system-ui,sans-serif" font-size="11" font-weight="700">M</text>
    <text x="52" y="18" fill="rgba(255,255,255,0.85)" font-family="system-ui,sans-serif" font-size="13" font-weight="600">Maya · Mod</text>
    <circle cx="118" cy="12" r="4" fill="#0FD98A"/>
    <text x="52" y="36" fill="rgba(255,255,255,0.45)" font-family="system-ui,sans-serif" font-size="10">2m ago</text>
    <rect x="0" y="52" width="328" height="56" rx="12" fill="rgba(255,255,255,0.05)" stroke="rgba(255,255,255,0.06)"/>
    <text x="16" y="80" fill="rgba(255,255,255,0.78)" font-family="system-ui,sans-serif" font-size="12">NY open playbook posted — mind</text>
    <text x="16" y="98" fill="rgba(255,255,255,0.78)" font-family="system-ui,sans-serif" font-size="12">liquidity around highs.</text>
    <rect x="16" y="108" width="44" height="20" rx="6" fill="rgba(183,148,244,0.15)"/>
    <text x="24" y="122" fill="#c4b5fd" font-family="system-ui,sans-serif" font-size="9" font-weight="600">+48</text>
  </g>

  <!-- Post 2 -->
  <g transform="translate(388, 300)">
    <circle cx="20" cy="20" r="18" fill="rgba(234,169,96,0.4)"/>
    <text x="20" y="26" text-anchor="middle" fill="#0a0618" font-family="system-ui,sans-serif" font-size="11" font-weight="800">K</text>
    <text x="52" y="18" fill="rgba(255,255,255,0.85)" font-family="system-ui,sans-serif" font-size="13" font-weight="600">Kai</text>
    <text x="52" y="36" fill="rgba(255,255,255,0.45)" font-family="system-ui,sans-serif" font-size="10">12m ago</text>
    <rect x="0" y="48" width="328" height="72" rx="12" fill="rgba(255,255,255,0.04)" stroke="rgba(255,255,255,0.05)"/>
    <text x="16" y="76" fill="rgba(255,255,255,0.75)" font-family="system-ui,sans-serif" font-size="12">Anyone scaling partials on</text>
    <text x="16" y="94" fill="rgba(255,255,255,0.75)" font-family="system-ui,sans-serif" font-size="12">this structure? Chart in thread.</text>
    <rect x="240" y="60" width="72" height="44" rx="8" fill="rgba(0,0,0,0.4)" stroke="rgba(99,179,237,0.25)"/>
    <path d="M252 88 L276 72 L300 88 L276 104 Z" fill="none" stroke="rgba(99,179,237,0.5)" stroke-width="1.2"/>
  </g>

  <!-- Online strip -->
  <rect x="388" y="520" width="352" height="28" rx="8" fill="rgba(255,255,255,0.04)"/>
  <circle cx="404" cy="534" r="6" fill="#0FD98A"/>
  <text x="418" y="538" fill="rgba(255,255,255,0.45)" font-family="system-ui,sans-serif" font-size="10">312 traders online</text>
</svg>
