<svg xmlns="http://www.w3.org/2000/svg" width="800" height="600" viewBox="0 0 800 600" fill="none">
  <defs>
    <linearGradient id="eg" x1="0%" y1="0%" x2="100%" y2="100%">
      <stop offset="0%" stop-color="#0d1828"/>
      <stop offset="100%" stop-color="#152238"/>
    </linearGradient>
    <linearGradient id="ecard" x1="0%" y1="0%" x2="0%" y2="100%">
      <stop offset="0%" stop-color="rgba(212,175,55,0.15)"/>
      <stop offset="100%" stop-color="rgba(212,175,55,0.04)"/>
    </linearGradient>
  </defs>
  <rect width="800" height="600" fill="url(#eg)"/>
  <g opacity="0.09" stroke="#fff" stroke-width="0.5">
    <path d="M0 200 H800 M0 400 H800"/>
    <path d="M266 0 V600 M533 0 V600"/>
  </g>
  <rect x="56" y="56" width="230" height="280" rx="16" fill="url(#ecard)" stroke="rgba(212,175,55,0.35)"/>
  <rect x="76" y="88" width="170" height="100" rx="8" fill="rgba(0,0,0,0.2)"/>
  <rect x="76" y="206" width="140" height="12" rx="2" fill="rgba(255,255,255,0.2)"/>
  <rect x="76" y="228" width="100" height="8" rx="2" fill="rgba(255,255,255,0.1)"/>
  <rect x="306" y="56" width="230" height="280" rx="16" fill="rgba(255,255,255,0.04)" stroke="rgba(255,255,255,0.12)"/>
  <rect x="326" y="88" width="170" height="100" rx="8" fill="rgba(0,0,0,0.15)"/>
  <rect x="326" y="206" width="120" height="12" rx="2" fill="rgba(255,255,255,0.15)"/>
  <rect x="556" y="56" width="188" height="280" rx="16" fill="rgba(255,255,255,0.03)" stroke="rgba(255,255,255,0.1)"/>
  <rect x="576" y="88" width="140" height="100" rx="8" fill="rgba(0,0,0,0.12)"/>
  <rect x="56" y="360" width="688" height="160" rx="16" fill="rgba(15,217,138,0.06)" stroke="rgba(15,217,138,0.2)"/>
  <rect x="80" y="392" width="240" height="14" rx="3" fill="rgba(232,198,88,0.35)"/>
  <rect x="80" y="420" width="520" height="8" rx="2" fill="rgba(255,255,255,0.1)"/>
  <rect x="80" y="438" width="440" height="8" rx="2" fill="rgba(255,255,255,0.06)"/>
</svg>
