<svg xmlns="http://www.w3.org/2000/svg" width="800" height="600" viewBox="0 0 800 600" fill="none">
  <defs>
    <linearGradient id="e_bg" x1="0%" y1="0%" x2="100%" y2="100%">
      <stop offset="0%" stop-color="#061018"/>
      <stop offset="100%" stop-color="#0c1828"/>
    </linearGradient>
    <linearGradient id="e_card1" x1="0%" y1="0%" x2="100%" y2="100%">
      <stop offset="0%" stop-color="rgba(234,169,96,0.2)"/>
      <stop offset="100%" stop-color="rgba(234,169,96,0.04)"/>
    </linearGradient>
    <linearGradient id="e_vid" x1="0%" y1="0%" x2="100%" y2="100%">
      <stop offset="0%" stop-color="#1e293b"/>
      <stop offset="100%" stop-color="#0f172a"/>
    </linearGradient>
  </defs>
  <rect width="800" height="600" fill="url(#e_bg)"/>
  <ellipse cx="650" cy="80" rx="160" ry="90" fill="#EAA960" opacity="0.06"/>

  <!-- Top bar -->
  <rect x="40" y="36" width="720" height="48" rx="14" fill="rgba(255,255,255,0.05)" stroke="rgba(255,255,255,0.08)"/>
  <text x="64" y="68" fill="rgba(255,255,255,0.9)" font-family="system-ui,sans-serif" font-size="15" font-weight="600">Courses &amp; mentorship</text>
  <rect x="580" y="48" width="160" height="24" rx="8" fill="rgba(15,217,138,0.12)" stroke="rgba(15,217,138,0.3)"/>
  <text x="596" y="64" fill="#6ee7b7" font-family="system-ui,sans-serif" font-size="11" font-weight="600">Your progress</text>

  <!-- Row 1 cards -->
  <g transform="translate(40, 108)">
    <rect width="340" height="220" rx="20" fill="url(#e_card1)" stroke="rgba(234,169,96,0.35)"/>
    <rect x="20" y="20" width="300" height="120" rx="12" fill="url(#e_vid)" stroke="rgba(255,255,255,0.08)"/>
    <circle cx="170" cy="80" r="28" fill="rgba(234,169,96,0.9)"/>
    <path d="M162 80 L178 88 V72 Z" fill="#0a0f18"/>
    <text x="20" y="168" fill="#fff" font-family="system-ui,sans-serif" font-size="14" font-weight="600">Foundations of execution</text>
    <text x="20" y="190" fill="rgba(255,255,255,0.45)" font-family="system-ui,sans-serif" font-size="11">Module 1 · 6 lessons</text>
    <rect x="20" y="198" width="240" height="6" rx="2" fill="rgba(255,255,255,0.1)"/>
    <rect x="20" y="198" width="180" height="6" rx="2" fill="#EAA960" opacity="0.85"/>
  </g>

  <g transform="translate(420, 108)">
    <rect width="340" height="220" rx="20" fill="rgba(255,255,255,0.04)" stroke="rgba(255,255,255,0.1)"/>
    <rect x="20" y="20" width="300" height="120" rx="12" fill="url(#e_vid)" stroke="rgba(99,179,237,0.2)"/>
    <circle cx="170" cy="80" r="28" fill="rgba(99,179,237,0.85)"/>
    <path d="M162 80 L178 88 V72 Z" fill="#0a0f18"/>
    <text x="20" y="168" fill="#fff" font-family="system-ui,sans-serif" font-size="14" font-weight="600">Risk &amp; position sizing</text>
    <text x="20" y="190" fill="rgba(255,255,255,0.45)" font-family="system-ui,sans-serif" font-size="11">Module 2 · 4 lessons</text>
    <rect x="20" y="198" width="240" height="6" rx="2" fill="rgba(255,255,255,0.1)"/>
    <rect x="20" y="198" width="96" height="6" rx="2" fill="#63B3ED" opacity="0.85"/>
  </g>

  <!-- Bottom wide card -->
  <rect x="40" y="352" width="720" height="200" rx="22" fill="rgba(0,0,0,0.35)" stroke="rgba(255,255,255,0.07)"/>
  <text x="64" y="396" fill="rgba(255,255,255,0.45)" font-family="system-ui,sans-serif" font-size="11" font-weight="600" letter-spacing="0.12em">1:1 MENTORSHIP</text>
  <text x="64" y="432" fill="#fff" font-family="system-ui,sans-serif" font-size="18" font-weight="700">Office hours &amp; review sessions</text>
  <text x="64" y="460" fill="rgba(255,255,255,0.5)" font-family="system-ui,sans-serif" font-size="13">Book a slot · screen share · trade review</text>
  <rect x="64" y="484" width="200" height="44" rx="12" fill="rgba(234,169,96,0.2)" stroke="rgba(234,169,96,0.45)"/>
  <text x="108" y="512" fill="#EAA960" font-family="system-ui,sans-serif" font-size="13" font-weight="600">Schedule</text>
  <rect x="520" y="380" width="220" height="140" rx="16" fill="rgba(15,217,138,0.06)" stroke="rgba(15,217,138,0.2)"/>
  <circle cx="630" cy="440" r="36" fill="none" stroke="rgba(15,217,138,0.22)" stroke-width="6"/>
  <circle cx="630" cy="440" r="36" fill="none" stroke="#0FD98A" stroke-width="6" stroke-linecap="round" stroke-dasharray="154 226" transform="rotate(-90 630 440)"/>
  <text x="630" y="446" text-anchor="middle" fill="#0FD98A" font-family="system-ui,sans-serif" font-size="16" font-weight="700">68%</text>
  <text x="630" y="488" text-anchor="middle" fill="rgba(255,255,255,0.4)" font-family="system-ui,sans-serif" font-size="10">Path complete</text>
</svg>
