<svg xmlns="http://www.w3.org/2000/svg" width="800" height="600" viewBox="0 0 800 600" fill="none">
  <defs>
    <linearGradient id="jg" x1="0%" y1="0%" x2="100%" y2="100%">
      <stop offset="0%" stop-color="#0a0f1f"/>
      <stop offset="100%" stop-color="#121a32"/>
    </linearGradient>
    <linearGradient id="jgold" x1="0%" y1="0%" x2="100%" y2="0%">
      <stop offset="0%" stop-color="#c9a227" stop-opacity="0.9"/>
      <stop offset="100%" stop-color="#e8c658" stop-opacity="0.85"/>
    </linearGradient>
  </defs>
  <rect width="800" height="600" fill="url(#jg)"/>
  <g opacity="0.12" stroke="#fff" stroke-width="0.6">
    <path d="M0 120 H800 M0 240 H800 M0 360 H800 M0 480 H800"/>
    <path d="M160 0 V600 M320 0 V600 M480 0 V600 M640 0 V600"/>
  </g>
  <rect x="48" y="52" width="220" height="36" rx="8" fill="rgba(212,175,55,0.12)" stroke="rgba(212,175,55,0.35)" stroke-width="1"/>
  <text x="64" y="76" fill="rgba(232,198,88,0.95)" font-family="system-ui,sans-serif" font-size="14" font-weight="600" letter-spacing="0.2em">JOURNAL</text>
  <rect x="48" y="110" width="704" height="420" rx="14" fill="rgba(255,255,255,0.03)" stroke="rgba(255,255,255,0.08)"/>
  <rect x="72" y="138" width="180" height="22" rx="4" fill="url(#jgold)" opacity="0.35"/>
  <g fill="none" stroke="rgba(255,255,255,0.14)" stroke-width="1">
    <path d="M72 188 H728 M72 228 H620 M72 268 H680 M72 308 H540 M72 348 H660 M72 388 H590"/>
  </g>
  <circle cx="720" cy="156" r="6" fill="rgba(15,217,138,0.5)"/>
  <rect x="72" y="430" width="140" height="36" rx="8" fill="rgba(15,217,138,0.12)" stroke="rgba(15,217,138,0.35)"/>
</svg>
