<svg xmlns="http://www.w3.org/2000/svg" width="800" height="600" viewBox="0 0 800 600" fill="none">
  <defs>
    <linearGradient id="j_mesh" x1="0%" y1="0%" x2="100%" y2="100%">
      <stop offset="0%" stop-color="#050a14"/>
      <stop offset="45%" stop-color="#0c1224"/>
      <stop offset="100%" stop-color="#0f1729"/>
    </linearGradient>
    <linearGradient id="j_gold" x1="0%" y1="0%" x2="100%" y2="100%">
      <stop offset="0%" stop-color="#EAA960"/>
      <stop offset="100%" stop-color="#D48D44"/>
    </linearGradient>
    <linearGradient id="j_glass" x1="0%" y1="0%" x2="0%" y2="100%">
      <stop offset="0%" stop-color="rgba(255,255,255,0.09)"/>
      <stop offset="100%" stop-color="rgba(255,255,255,0.02)"/>
    </linearGradient>
  </defs>
  <rect width="800" height="600" fill="url(#j_mesh)"/>
  <ellipse cx="120" cy="100" rx="200" ry="120" fill="#0FD98A" opacity="0.07"/>
  <ellipse cx="680" cy="480" rx="180" ry="100" fill="#EAA960" opacity="0.06"/>

  <!-- Top app bar -->
  <rect x="40" y="36" width="720" height="52" rx="14" fill="url(#j_glass)" stroke="rgba(255,255,255,0.1)"/>
  <rect x="60" y="52" width="72" height="20" rx="6" fill="url(#j_gold)" opacity="0.9"/>
  <rect x="148" y="54" width="100" height="8" rx="2" fill="rgba(255,255,255,0.35)"/>
  <rect x="148" y="68" width="64" height="6" rx="2" fill="rgba(255,255,255,0.12)"/>
  <rect x="620" y="50" width="120" height="24" rx="8" fill="rgba(15,217,138,0.15)" stroke="rgba(15,217,138,0.35)"/>
  <circle cx="648" cy="62" r="6" fill="#0FD98A"/>
  <rect x="660" y="58" width="68" height="8" rx="2" fill="rgba(255,255,255,0.45)"/>

  <!-- Streak card -->
  <rect x="40" y="104" width="200" height="200" rx="18" fill="rgba(0,0,0,0.35)" stroke="rgba(234,169,96,0.25)"/>
  <path d="M100 148 L108 168 L128 172 L112 186 L116 206 L100 194 L84 206 L88 186 L72 172 L92 168 Z" fill="url(#j_gold)" opacity="0.85"/>
  <text x="100" y="228" text-anchor="middle" fill="rgba(255,255,255,0.92)" font-family="system-ui,Segoe UI,sans-serif" font-size="28" font-weight="700">12</text>
  <text x="100" y="252" text-anchor="middle" fill="rgba(255,255,255,0.4)" font-family="system-ui,sans-serif" font-size="11" letter-spacing="0.12em">DAY STREAK</text>
  <rect x="64" y="268" width="152" height="8" rx="3" fill="rgba(255,255,255,0.08)"/>
  <rect x="64" y="268" width="112" height="8" rx="3" fill="url(#j_gold)" opacity="0.7"/>

  <!-- Main checklist panel -->
  <rect x="256" y="104" width="504" height="432" rx="20" fill="url(#j_glass)" stroke="rgba(255,255,255,0.08)"/>
  <rect x="280" y="128" width="140" height="10" rx="3" fill="rgba(255,255,255,0.2)"/>
  <rect x="280" y="146" width="88" height="7" rx="2" fill="rgba(255,255,255,0.1)"/>

  <g transform="translate(280, 184)">
    <rect width="456" height="56" rx="12" fill="rgba(15,217,138,0.08)" stroke="rgba(15,217,138,0.22)"/>
    <rect x="16" y="18" width="20" height="20" rx="6" fill="#0FD98A" opacity="0.85"/>
    <path d="M22 28 L26 32 L32 22" stroke="#050a14" stroke-width="2.2" stroke-linecap="round" stroke-linejoin="round" fill="none"/>
    <rect x="52" y="16" width="200" height="10" rx="2" fill="rgba(255,255,255,0.85)"/>
    <rect x="52" y="32" width="160" height="7" rx="2" fill="rgba(255,255,255,0.2)"/>
  </g>
  <g transform="translate(280, 252)">
    <rect width="456" height="56" rx="12" fill="rgba(255,255,255,0.04)" stroke="rgba(255,255,255,0.07)"/>
    <rect x="16" y="18" width="20" height="20" rx="6" stroke="rgba(255,255,255,0.25)" stroke-width="1.5" fill="none"/>
    <rect x="52" y="16" width="180" height="10" rx="2" fill="rgba(255,255,255,0.55)"/>
    <rect x="52" y="32" width="220" height="7" rx="2" fill="rgba(255,255,255,0.15)"/>
  </g>
  <g transform="translate(280, 320)">
    <rect width="456" height="56" rx="12" fill="rgba(255,255,255,0.04)" stroke="rgba(255,255,255,0.07)"/>
    <rect x="16" y="18" width="20" height="20" rx="6" fill="#0FD98A" opacity="0.85"/>
    <path d="M22 28 L26 32 L32 22" stroke="#050a14" stroke-width="2.2" stroke-linecap="round" fill="none"/>
    <rect x="52" y="16" width="220" height="10" rx="2" fill="rgba(255,255,255,0.75)"/>
    <rect x="52" y="32" width="140" height="7" rx="2" fill="rgba(255,255,255,0.18)"/>
  </g>

  <!-- Session notes block -->
  <rect x="280" y="396" width="456" height="120" rx="14" fill="rgba(0,0,0,0.25)" stroke="rgba(234,169,96,0.15)"/>
  <rect x="300" y="416" width="120" height="8" rx="2" fill="rgba(234,169,96,0.45)"/>
  <rect x="300" y="436" width="400" height="6" rx="2" fill="rgba(255,255,255,0.12)"/>
  <rect x="300" y="450" width="360" height="6" rx="2" fill="rgba(255,255,255,0.08)"/>
  <rect x="300" y="464" width="280" height="6" rx="2" fill="rgba(255,255,255,0.06)"/>

  <!-- Mini spark area -->
  <path d="M40 340 L60 320 L90 350 L120 300 L150 330 L180 280 L200 310" stroke="#0FD98A" stroke-width="2.5" fill="none" opacity="0.7" stroke-linecap="round" stroke-linejoin="round"/>
  <path d="M40 340 L60 320 L90 350 L120 300 L150 330 L180 280 L200 310 V380 H40 Z" fill="url(#j_gold)" opacity="0.12"/>
</svg>
