<svg xmlns="http://www.w3.org/2000/svg" width="800" height="600" viewBox="0 0 800 600" fill="none">
  <defs>
    <linearGradient id="mg" x1="0%" y1="0%" x2="100%" y2="100%">
      <stop offset="0%" stop-color="#071530"/>
      <stop offset="100%" stop-color="#0d2248"/>
    </linearGradient>
    <linearGradient id="mline" x1="0%" y1="0%" x2="100%" y2="0%">
      <stop offset="0%" stop-color="#63B3ED" stop-opacity="0"/>
      <stop offset="50%" stop-color="#B794F4" stop-opacity="0.9"/>
      <stop offset="100%" stop-color="#63B3ED" stop-opacity="0"/>
    </linearGradient>
  </defs>
  <rect width="800" height="600" fill="url(#mg)"/>
  <g opacity="0.1" stroke="#fff" stroke-width="0.5">
    <path d="M0 100 H800 M0 200 H800 M0 300 H800 M0 400 H800 M0 500 H800"/>
    <path d="M100 0 V600 M200 0 V600 M300 0 V600 M400 0 V600 M500 0 V600 M600 0 V600 M700 0 V600"/>
  </g>
  <g transform="translate(80,320)">
    <rect x="0" y="40" width="24" height="120" rx="2" fill="#0FD98A" opacity="0.75"/>
    <rect x="36" y="80" width="24" height="80" rx="2" fill="#ef4444" opacity="0.65"/>
    <rect x="72" y="20" width="24" height="140" rx="2" fill="#0FD98A" opacity="0.7"/>
    <rect x="108" y="60" width="24" height="100" rx="2" fill="#0FD98A" opacity="0.55"/>
    <rect x="144" y="100" width="24" height="60" rx="2" fill="#ef4444" opacity="0.55"/>
    <rect x="180" y="30" width="24" height="130" rx="2" fill="#0FD98A" opacity="0.8"/>
    <rect x="216" y="70" width="24" height="90" rx="2" fill="#0FD98A" opacity="0.6"/>
    <rect x="252" y="50" width="24" height="110" rx="2" fill="#ef4444" opacity="0.5"/>
    <rect x="288" y="10" width="24" height="150" rx="2" fill="#0FD98A" opacity="0.85"/>
    <rect x="324" y="90" width="24" height="70" rx="2" fill="#0FD98A" opacity="0.5"/>
    <rect x="360" y="45" width="24" height="115" rx="2" fill="#0FD98A" opacity="0.7"/>
    <rect x="396" y="100" width="24" height="60" rx="2" fill="#ef4444" opacity="0.6"/>
    <rect x="432" y="25" width="24" height="135" rx="2" fill="#0FD98A" opacity="0.75"/>
    <rect x="468" y="65" width="24" height="95" rx="2" fill="#0FD98A" opacity="0.55"/>
    <rect x="504" y="85" width="24" height="75" rx="2" fill="#ef4444" opacity="0.45"/>
    <rect x="540" y="35" width="24" height="125" rx="2" fill="#0FD98A" opacity="0.8"/>
  </g>
  <path d="M72 180 Q200 120 360 160 T640 140 T760 100" stroke="url(#mline)" stroke-width="2.5" fill="none" opacity="0.85"/>
  <rect x="48" y="48" width="280" height="32" rx="8" fill="rgba(99,179,237,0.1)" stroke="rgba(99,179,237,0.35)"/>
  <text x="64" y="70" fill="rgba(147,197,253,0.95)" font-family="system-ui,sans-serif" font-size="12" font-weight="600" letter-spacing="0.18em">MARKET INTEL</text>
</svg>
