<svg xmlns="http://www.w3.org/2000/svg" width="800" height="600" viewBox="0 0 800 600" fill="none">
  <defs>
    <linearGradient id="m_bg" x1="0%" y1="0%" x2="100%" y2="100%">
      <stop offset="0%" stop-color="#030d1f"/>
      <stop offset="50%" stop-color="#0a1628"/>
      <stop offset="100%" stop-color="#0d1f3a"/>
    </linearGradient>
    <linearGradient id="m_chart" x1="0%" y1="0%" x2="0%" y2="100%">
      <stop offset="0%" stop-color="#63B3ED" stop-opacity="0.45"/>
      <stop offset="100%" stop-color="#63B3ED" stop-opacity="0"/>
    </linearGradient>
    <linearGradient id="m_line" x1="0%" y1="0%" x2="100%" y2="0%">
      <stop offset="0%" stop-color="#63B3ED"/>
      <stop offset="50%" stop-color="#B794F4"/>
      <stop offset="100%" stop-color="#63B3ED"/>
    </linearGradient>
  </defs>
  <rect width="800" height="600" fill="url(#m_bg)"/>
  <circle cx="700" cy="80" r="140" fill="#63B3ED" opacity="0.04"/>
  <circle cx="100" cy="520" r="120" fill="#B794F4" opacity="0.05"/>

  <!-- KPI row -->
  <g transform="translate(40, 44)">
    <rect width="220" height="76" rx="16" fill="rgba(255,255,255,0.05)" stroke="rgba(99,179,237,0.25)"/>
    <text x="20" y="32" fill="rgba(147,197,253,0.75)" font-family="system-ui,sans-serif" font-size="10" font-weight="600" letter-spacing="0.14em">SPX</text>
    <text x="20" y="58" fill="#fff" font-family="system-ui,sans-serif" font-size="22" font-weight="700">5,842</text>
    <text x="140" y="58" fill="#0FD98A" font-family="system-ui,sans-serif" font-size="13" font-weight="600">+0.42%</text>
  </g>
  <g transform="translate(280, 44)">
    <rect width="220" height="76" rx="16" fill="rgba(255,255,255,0.05)" stroke="rgba(183,148,244,0.25)"/>
    <text x="20" y="32" fill="rgba(196,181,253,0.8)" font-family="system-ui,sans-serif" font-size="10" font-weight="600" letter-spacing="0.14em">DXY</text>
    <text x="20" y="58" fill="#fff" font-family="system-ui,sans-serif" font-size="22" font-weight="700">103.2</text>
    <text x="130" y="58" fill="#f87171" font-family="system-ui,sans-serif" font-size="13" font-weight="600">−0.18%</text>
  </g>
  <g transform="translate(520, 44)">
    <rect width="240" height="76" rx="16" fill="rgba(255,255,255,0.05)" stroke="rgba(234,169,96,0.22)"/>
    <text x="20" y="32" fill="rgba(253,224,200,0.75)" font-family="system-ui,sans-serif" font-size="10" font-weight="600" letter-spacing="0.14em">VOL INDEX</text>
    <text x="20" y="58" fill="#fff" font-family="system-ui,sans-serif" font-size="22" font-weight="700">14.6</text>
    <rect x="150" y="38" width="70" height="22" rx="6" fill="rgba(15,217,138,0.2)"/>
    <text x="158" y="54" fill="#0FD98A" font-family="system-ui,sans-serif" font-size="10" font-weight="600">LOW VOL</text>
  </g>

  <!-- Chart card -->
  <rect x="40" y="144" width="500" height="300" rx="20" fill="rgba(0,0,0,0.35)" stroke="rgba(255,255,255,0.08)"/>
  <text x="64" y="184" fill="rgba(255,255,255,0.5)" font-family="system-ui,sans-serif" font-size="11" letter-spacing="0.1em">SESSION BIAS · 15M</text>
  <!-- Candlesticks -->
  <g transform="translate(72, 220)">
    <rect x="0" y="40" width="10" height="50" rx="2" fill="#0FD98A" opacity="0.85"/>
    <line x1="5" y1="20" x2="5" y2="40" stroke="#0FD98A" stroke-width="2"/>
    <line x1="5" y1="90" x2="5" y2="110" stroke="#0FD98A" stroke-width="2"/>
    <rect x="28" y="55" width="10" height="35" rx="2" fill="#f87171" opacity="0.85"/>
    <line x1="33" y1="35" x2="33" y2="55" stroke="#f87171" stroke-width="2"/>
    <line x1="33" y1="90" x2="33" y2="100" stroke="#f87171" stroke-width="2"/>
    <rect x="56" y="25" width="10" height="65" rx="2" fill="#0FD98A" opacity="0.9"/>
    <line x1="61" y1="10" x2="61" y2="25" stroke="#0FD98A" stroke-width="2"/>
    <line x1="61" y1="90" x2="61" y2="105" stroke="#0FD98A" stroke-width="2"/>
    <rect x="84" y="45" width="10" height="45" rx="2" fill="#0FD98A" opacity="0.7"/>
    <rect x="112" y="60" width="10" height="30" rx="2" fill="#f87171" opacity="0.75"/>
    <rect x="140" y="30" width="10" height="60" rx="2" fill="#0FD98A" opacity="0.8"/>
    <rect x="168" y="50" width="10" height="40" rx="2" fill="#0FD98A" opacity="0.65"/>
    <rect x="196" y="35" width="10" height="55" rx="2" fill="#0FD98A" opacity="0.88"/>
    <rect x="224" y="58" width="10" height="32" rx="2" fill="#f87171" opacity="0.7"/>
    <rect x="252" y="42" width="10" height="48" rx="2" fill="#0FD98A" opacity="0.82"/>
    <rect x="280" y="28" width="10" height="62" rx="2" fill="#0FD98A" opacity="0.9"/>
  </g>
  <path d="M72 400 Q200 340 340 360 T580 320 T720 340" stroke="url(#m_line)" stroke-width="3" fill="none" opacity="0.95" stroke-linecap="round"/>
  <path d="M72 400 Q200 340 340 360 T580 320 T720 340 V440 H72 Z" fill="url(#m_chart)"/>

  <!-- Risk radar mini -->
  <rect x="560" y="144" width="200" height="300" rx="20" fill="rgba(255,255,255,0.04)" stroke="rgba(183,148,244,0.2)"/>
  <text x="584" y="184" fill="rgba(255,255,255,0.45)" font-family="system-ui,sans-serif" font-size="10" font-weight="600" letter-spacing="0.16em">RISK RADAR</text>
  <g transform="translate(584, 204)">
    <rect width="152" height="36" rx="8" fill="rgba(248,113,113,0.12)" stroke="rgba(248,113,113,0.3)"/>
    <circle cx="16" cy="18" r="5" fill="#f87171"/>
    <rect x="32" y="12" width="100" height="8" rx="2" fill="rgba(255,255,255,0.75)"/>
    <rect x="32" y="24" width="60" height="5" rx="1" fill="rgba(255,255,255,0.25)"/>
  </g>
  <g transform="translate(584, 252)">
    <rect width="152" height="36" rx="8" fill="rgba(234,169,96,0.1)" stroke="rgba(234,169,96,0.28)"/>
    <circle cx="16" cy="18" r="5" fill="#EAA960"/>
    <rect x="32" y="12" width="90" height="8" rx="2" fill="rgba(255,255,255,0.7)"/>
    <rect x="32" y="24" width="80" height="5" rx="1" fill="rgba(255,255,255,0.2)"/>
  </g>
  <g transform="translate(584, 300)">
    <rect width="152" height="36" rx="8" fill="rgba(15,217,138,0.1)" stroke="rgba(15,217,138,0.28)"/>
    <circle cx="16" cy="18" r="5" fill="#0FD98A"/>
    <rect x="32" y="12" width="110" height="8" rx="2" fill="rgba(255,255,255,0.65)"/>
    <rect x="32" y="24" width="70" height="5" rx="1" fill="rgba(255,255,255,0.22)"/>
  </g>
  <rect x="584" y="360" width="152" height="64" rx="12" fill="rgba(99,179,237,0.08)" stroke="rgba(99,179,237,0.2)"/>
  <text x="596" y="388" fill="rgba(147,197,253,0.9)" font-family="system-ui,sans-serif" font-size="11" font-weight="600">Macro sync</text>
  <text x="596" y="408" fill="rgba(255,255,255,0.35)" font-family="system-ui,sans-serif" font-size="9">London · NY overlap</text>

  <!-- Bottom ticker strip -->
  <rect x="40" y="464" width="720" height="96" rx="18" fill="rgba(0,0,0,0.4)" stroke="rgba(255,255,255,0.06)"/>
  <text x="64" y="500" fill="rgba(255,255,255,0.35)" font-family="system-ui,sans-serif" font-size="10" letter-spacing="0.12em">CROSS-ASSET</text>
  <g font-family="system-ui,sans-serif" font-size="12" font-weight="500">
    <text x="64" y="528" fill="#0FD98A">Yields ↑</text>
    <text x="160" y="528" fill="#f87171">USD ↓</text>
    <text x="240" y="528" fill="#0FD98A">Gold ↑</text>
    <text x="320" y="528" fill="#93c5fd">EQ ↑</text>
  </g>
</svg>
